<?xml version="1.0" encoding="UTF-8"?>
<svg id="Layer_2" data-name="Layer 2" xmlns="http://www.w3.org/2000/svg" viewBox="0 0 850.39 1417.32">
  <defs>
    <style>
      .cls-1 {
        fill: #1cad4b;
      }

      .cls-2 {
        fill: #4db748;
      }

      .cls-3 {
        fill: #109d49;
      }

      .cls-4 {
        fill: #82c341;
      }
    </style>
  </defs>
  <path class="cls-1" d="M504.48,1400.34c.93,9.62-25.68,14.78-44.01,12.52-17.74-2.19-37.48-12.54-37.48-12.54h0s18.71-18.36,42.62-17.81c16.06.37,38.04,9.35,38.86,17.84Z"/>
  <path class="cls-1" d="M413.81,1393.77c1.18-9.69-13.53-21.55-27.82-23.66-19.69-2.92-41.01,12.29-40.06,23.66.77,9.26,16.18,14.57,18.92,15.45,20.43,6.58,47.47-3.19,48.97-15.45Z"/>
  <path class="cls-1" d="M406.38,1369.39c.4-6.55,5.25-12.21,9.97-12.05,3.99.14,6.6,4.39,7.6,6.02.61,1,5.77,9.41,3.3,17.02-1.97,6.07-7.4,7.38-10.91,6.42-4.58-1.25-7.07-6.67-7.77-8.17-1-2.18-2.44-5.31-2.2-9.25Z"/>
  <path class="cls-2" d="M371.38,1384.53c-8.71-7.56-11.44-20.37-6.17-26.79,4.45-5.42,13.18-4.52,16.52-4.18,2.04.21,19.3,1.99,27.29,13.57,6.37,9.22,2.4,18.2-2.69,22.09-6.63,5.06-16.86,2.76-19.7,2.12-4.11-.93-10.01-2.26-15.26-6.81Z"/>
  <path class="cls-2" d="M421.09,1390.54c-3.97-7.48,5.78-19.51,6.83-20.8,8.38-10.34,20.34-11.87,24.44-12.4,6.16-.79,15.17-1.95,19.61,3.29,5.41,6.38,1.52,19.23-4.8,26.46-12.65,14.47-40.89,13.23-46.08,3.44Z"/>
  <path class="cls-3" d="M407.62,1392.09c-6.94-2.71-17.99-1.98-22.23,5.66-1.98,3.57-2.65,8.97-.29,12.36,4,5.73,14.43,2.47,18.8,1.1,3.77-1.18,12.64-3.96,13.21-9.15.5-4.58-5.73-8.5-9.49-9.97Z"/>
  <path class="cls-4" d="M422.33,1404.8c-5.07-4.17-6.81-11.42-3.91-15.14,2.45-3.15,7.43-2.77,9.33-2.62,1.16.09,11.01.84,15.73,7.3,3.76,5.15,1.64,10.32-1.2,12.6-3.7,2.98-9.55,1.82-11.17,1.5-2.35-.46-5.73-1.13-8.78-3.64Z"/>
</svg>