<?xml version="1.0" encoding="UTF-8"?>
<svg id="Layer_2" data-name="Layer 2" xmlns="http://www.w3.org/2000/svg" viewBox="0 0 850.39 1417.32">
  <defs>
    <style>
      .cls-1 {
        fill: #6bc17a;
      }

      .cls-2 {
        fill: #548c3f;
      }

      .cls-3 {
        fill: #589b43;
      }

      .cls-4 {
        fill: #48823c;
      }

      .cls-5 {
        fill: #6e9d66;
      }
    </style>
  </defs>
  <ellipse class="cls-3" cx="621.46" cy="1347.66" rx="64.35" ry="54.6"/>
  <ellipse class="cls-5" cx="560.62" cy="1293.06" rx="64.35" ry="54.6"/>
  <path class="cls-2" d="M519.74,1256.67c-4.87,29.37-36.88,44.01-71.49,32.7-34.62-11.31-58.73-44.29-53.86-73.66s36.88-44.01,71.49-32.7c34.62,11.31,58.73,44.29,53.86,73.66Z"/>
  <path class="cls-2" d="M519.74,1266.68c-4.87,29.37-36.88,44.01-71.49,32.7-34.62-11.31-58.73-44.29-53.86-73.66s36.88-44.01,71.49-32.7c34.62,11.31,58.73,44.29,53.86,73.66Z"/>
  <path class="cls-2" d="M519.74,1267.68c-4.87,29.37-36.88,44.01-71.49,32.7-34.62-11.31-58.73-44.29-53.86-73.66s36.88-44.01,71.49-32.7c34.62,11.31,58.73,44.29,53.86,73.66Z"/>
  <path class="cls-2" d="M519.74,1268.68c-4.87,29.37-36.88,44.01-71.49,32.7-34.62-11.31-58.73-44.29-53.86-73.66s36.88-44.01,71.49-32.7c34.62,11.31,58.73,44.29,53.86,73.66Z"/>
  <path class="cls-2" d="M524,1287.58c-6.6,37.36-41.65,57.37-78.27,44.69-36.62-12.67-60.96-53.23-54.35-90.59,6.6-37.36,41.65-57.37,78.27-44.69,36.62,12.67,60.96,53.23,54.35,90.59Z"/>
  <path class="cls-2" d="M399.66,1251.67c-4.87,29.37-36.88,44.01-71.49,32.7-34.62-11.31-58.73-44.29-53.86-73.66s36.88-44.01,71.49-32.7c34.62,11.31,58.73,44.29,53.86,73.66Z"/>
  <ellipse class="cls-5" cx="412.85" cy="1347.66" rx="64.35" ry="54.6"/>
  <path class="cls-1" d="M593.49,1342.68c3.86,29.66-21.34,60.99-56.3,69.97-34.96,8.98-66.43-7.79-70.3-37.45s21.34-60.99,56.3-69.97c34.96-8.98,66.43,7.79,70.3,37.45Z"/>
  <path class="cls-4" d="M722.53,1258.65c6.98,28.52-14.62,64.78-48.23,80.99-33.61,16.21-66.52,6.23-73.49-22.29-6.98-28.52,14.62-64.78,48.23-80.99,33.61-16.21,66.52-6.23,73.49,22.29Z"/>
  <path class="cls-3" d="M580.55,1269.16c-7.21,28.4-40.2,37.84-73.67,21.08-33.48-16.76-54.77-53.37-47.55-81.77,7.21-28.4,40.2-37.84,73.67-21.08,33.48,16.76,54.77,53.37,47.55,81.77Z"/>
  <ellipse class="cls-3" cx="696.98" cy="1353.6" rx="64.35" ry="54.6"/>
  <ellipse class="cls-3" cx="322.91" cy="1347.07" rx="64.35" ry="54.6"/>
  <ellipse class="cls-5" cx="262.06" cy="1292.47" rx="64.35" ry="54.6"/>
  <path class="cls-2" d="M212.37,1309.26c-4.87,29.37-36.88,44.01-71.49,32.7-34.62-11.31-58.73-44.29-53.86-73.66s36.88-44.01,71.49-32.7c34.62,11.31,58.73,44.29,53.86,73.66Z"/>
  <ellipse class="cls-5" cx="114.29" cy="1347.07" rx="64.35" ry="54.6"/>
  <path class="cls-1" d="M250.48,1282.98c30.65,21.49,41.9,64.87,25.13,96.89-16.77,32.02-55.2,40.56-85.85,19.07-30.65-21.49-41.9-64.87-25.13-96.89,16.77-32.02,55.2-40.56,85.85-19.07Z"/>
  <path class="cls-4" d="M423.97,1258.07c6.98,28.52-14.62,64.78-48.23,80.99-33.61,16.21-66.52,6.23-73.49-22.29-6.98-28.52,14.62-64.78,48.23-80.99,33.61-16.21,66.52-6.23,73.49,22.29Z"/>
  <path class="cls-3" d="M281.99,1268.58c-7.21,28.4-40.2,37.84-73.67,21.08-33.48-16.76-54.77-53.37-47.55-81.77,7.21-28.4,40.2-37.84,73.67-21.08,33.48,16.76,54.77,53.37,47.55,81.77Z"/>
</svg>