<?xml version="1.0" encoding="UTF-8"?>
<svg id="Layer_2" data-name="Layer 2" xmlns="http://www.w3.org/2000/svg" viewBox="0 0 850.39 1417.32">
  <defs>
    <style>
      .cls-1 {
        fill: #1cad4b;
      }

      .cls-2 {
        fill: #4db748;
      }

      .cls-3 {
        fill: #8969ae;
      }

      .cls-4 {
        fill: #9f56a2;
      }

      .cls-5 {
        fill: #109d49;
      }

      .cls-6 {
        fill: #82c341;
      }

      .cls-7 {
        fill: none;
        stroke: #76471c;
        stroke-miterlimit: 10;
        stroke-width: 8.5px;
      }

      .cls-8 {
        fill: #c39dc9;
      }
    </style>
  </defs>
  <path class="cls-6" d="M420.57,1287.73c23.79,8.55,62.16-21.78,75.71-56.65,18.67-48.04-7.48-110.57-36.73-114.72-23.83-3.38-46.06,32.48-49.86,38.89-28.35,47.78-19.21,121.66,10.88,132.48Z"/>
  <path class="cls-5" d="M371.51,1298.25c25.28.1,51.3-41.3,52.42-78.7,1.53-51.51-44.02-101.7-72.97-95.84-23.59,4.78-32.55,46.01-33.99,53.32-10.74,54.51,22.57,121.09,54.55,121.22Z"/>
  <path class="cls-1" d="M533.87,1143.14c-19.93-9.14-49.56,17.84-52.74,20.74-25.47,23.2-27.66,54.33-28.41,65.01-1.13,16.05-2.78,39.5,11.43,50.21,17.29,13.03,49.92,1.07,67.68-16.36,35.52-34.84,28.11-107.64,2.04-119.6Z"/>
  <path class="cls-2" d="M436.61,1256.55c-17.25-8.62-35.02-31.11-27.71-52.51,3.42-10.01,12.62-20.66,23.22-22.01,17.95-2.28,29.79,23.43,34.74,34.19,4.28,9.29,14.34,31.14,5.35,41.25-7.93,8.92-26.27,3.75-35.61-.92Z"/>
  <path class="cls-1" d="M245.93,1130.07c-17.75,12.87-8.79,51.93-7.83,56.12,7.7,33.58,33.74,50.77,42.68,56.67,13.43,8.87,33.04,21.81,49.35,14.7,19.84-8.66,25.44-42.96,18.99-66.99-12.91-48.05-79.97-77.34-103.18-60.5Z"/>
  <path class="cls-6" d="M296.96,1270.48c-15.98,10.8-44.3,15.23-59.36-1.65-7.04-7.89-11.8-21.14-7.77-31.04,6.83-16.76,35.04-14.45,46.84-13.48,10.19.84,34.16,2.8,38.56,15.59,3.88,11.29-9.63,24.72-18.28,30.57Z"/>
  <path class="cls-1" d="M646.06,1197.12c17.75,12.87,8.79,51.93,7.83,56.12-7.7,33.58-33.74,50.77-42.68,56.67-13.43,8.87-33.04,21.81-49.35,14.7-19.84-8.66-25.44-42.96-18.99-66.99,12.91-48.05,79.97-77.34,103.18-60.5Z"/>
  <path class="cls-1" d="M645.76,1378.56c2.41,24.91-66.48,38.26-113.92,32.4-45.92-5.67-97.01-32.47-97.02-32.47h0s48.43-47.53,110.35-46.11c41.59.95,98.47,24.2,100.6,46.18Z"/>
  <path class="cls-1" d="M411.05,1361.57c3.06-25.09-35.02-55.78-72.03-61.26-50.98-7.55-106.15,31.82-103.72,61.26,1.98,23.98,41.88,37.71,48.98,39.99,52.88,17.04,122.89-8.25,126.77-39.99Z"/>
  <path class="cls-1" d="M391.81,1298.46c1.05-16.96,13.6-31.61,25.82-31.19,10.33.36,17.08,11.38,19.67,15.59,1.58,2.58,14.94,24.36,8.55,44.07-5.09,15.71-19.15,19.1-28.25,16.62-11.86-3.23-18.31-17.26-20.11-21.15-2.59-5.63-6.32-13.73-5.69-23.95Z"/>
  <path class="cls-2" d="M301.22,1337.65c-22.56-19.57-29.61-52.75-15.96-69.35,11.53-14.03,34.12-11.7,42.77-10.81,5.29.54,49.96,5.15,70.66,35.12,16.49,23.88,6.22,47.13-6.96,57.18-17.17,13.1-43.65,7.14-51,5.48-10.63-2.4-25.92-5.84-39.51-17.63Z"/>
  <path class="cls-2" d="M429.9,1353.2c-10.27-19.37,14.96-50.5,17.67-53.84,21.7-26.76,52.65-30.74,63.27-32.1,15.96-2.05,39.27-5.04,50.78,8.52,14.01,16.51,3.94,49.77-12.44,68.51-32.74,37.46-105.85,34.25-119.28,8.91Z"/>
  <path class="cls-5" d="M395.02,1357.22c-17.96-7.02-46.57-5.11-57.54,14.66-5.13,9.25-6.86,23.22-.75,31.99,10.35,14.85,37.36,6.39,48.66,2.84,9.76-3.06,32.71-10.25,34.19-23.69,1.3-11.86-14.83-22-24.56-25.8Z"/>
  <path class="cls-6" d="M433.12,1390.12c-13.12-10.79-17.63-29.55-10.13-39.2,6.35-8.15,19.23-7.17,24.17-6.79,3.02.23,28.49,2.17,40.72,18.91,9.74,13.33,4.25,26.71-3.1,32.63-9.57,7.71-24.72,4.72-28.92,3.89-6.08-1.2-14.83-2.93-22.74-9.43Z"/>
  <path class="cls-2" d="M120.86,1285.75c3.48-21.65,42.38-31.27,46.56-32.3,33.44-8.27,60.54,7.22,69.83,12.53,13.97,7.99,34.37,19.65,35.38,37.41,1.22,21.62-26.86,42.08-51.23,47.16-48.7,10.15-105.1-36.49-100.54-64.8Z"/>
  <path class="cls-5" d="M595.03,1337.54c15.98,10.8,44.3,15.23,59.36-1.65,7.04-7.89,11.8-21.14,7.77-31.04-6.83-16.76-35.04-14.45-46.84-13.48-10.19.84-34.16,2.8-38.56,15.59-3.88,11.29,9.63,24.72,18.28,30.57Z"/>
  <path class="cls-5" d="M257.67,1256.1c2.43-19.13-6.39-46.41-28.24-52.23-10.22-2.72-24.19-1-31.21,7.07-11.88,13.66,2.91,37.79,9.1,47.89,5.34,8.72,17.91,29.23,31.31,27.38,11.82-1.63,17.72-19.75,19.04-30.1Z"/>
  <g>
    <line class="cls-7" x1="476.11" y1="868.72" x2="632.69" y2="783.34"/>
    <path class="cls-4" d="M638.37,779.58c-10.03-3.62-24.23-1.77-32.49,6.5-10.83,10.84-3.56,24.77-14.3,33.79-10.79,9.07-24.51.34-29.77,7.8-6.36,9.01,4.6,34.58,21.98,40.29,4.73,1.55,8.16,1.05,45.67-11.7,20.21-6.87,22.15-7.72,24.51-10.4,14.24-16.08,8.24-57.67-15.6-66.28Z"/>
    <path class="cls-3" d="M660.07,797.44c8.64,6.25,15.1,19.03,12.92,30.51-2.86,15.05-18.46,16.88-19.88,30.84-1.42,14.03,13.51,20.45,10.32,29-3.86,10.33-31.17,15.67-45.67,4.52-3.94-3.03-5.47-6.15-16.04-44.33-5.7-20.57-6.08-22.65-5.21-26.11,5.28-20.82,43.02-39.28,63.56-24.42Z"/>
    <path class="cls-8" d="M634,786.08c10.03-3.62,24.23-1.77,32.49,6.5,10.83,10.84,3.56,24.77,14.3,33.79,10.79,9.07,24.51.34,29.77,7.8,6.36,9.01-4.6,34.58-21.98,40.29-4.73,1.55-8.16,1.05-45.67-11.7-20.21-6.87-22.15-7.72-24.51-10.4-14.24-16.08-8.24-57.67,15.6-66.28Z"/>
    <path class="cls-7" d="M414.21,1298.14c11.05-125.27,19.16-270.79,61.9-429.42,26.77-99.37,97.7-379.63,129.58-460.02h27.67"/>
    <path class="cls-4" d="M663.48,392.39c-10.03-3.62-24.23-1.77-32.49,6.5-10.83,10.84-3.56,24.77-14.3,33.79-10.79,9.07-24.51.34-29.77,7.8-6.36,9.01,4.6,34.58,21.98,40.29,4.73,1.55,8.16,1.05,45.67-11.7,20.21-6.87,22.15-7.72,24.51-10.4,14.24-16.08,8.24-57.67-15.6-66.28Z"/>
    <path class="cls-8" d="M685.19,410.25c8.64,6.25,15.1,19.03,12.92,30.51-2.86,15.05-18.46,16.88-19.88,30.84-1.42,14.03,13.51,20.45,10.32,29-3.86,10.33-31.17,15.67-45.67,4.52-3.94-3.03-5.47-6.15-16.04-44.33-5.7-20.57-6.08-22.65-5.21-26.11,5.28-20.82,43.02-39.28,63.56-24.42Z"/>
    <path class="cls-3" d="M659.11,398.89c10.03-3.62,24.23-1.77,32.49,6.5,10.83,10.84,3.56,24.77,14.3,33.79,10.79,9.07,24.51.34,29.77,7.8,6.36,9.01-4.6,34.58-21.98,40.29-4.73,1.55-8.16,1.05-45.67-11.7-20.21-6.87-22.15-7.72-24.51-10.4-14.24-16.08-8.24-57.67,15.6-66.28Z"/>
    <path class="cls-1" d="M426.46,814.46c6.7-8.43,24.24,1.55,41.68,21.5,1.88,2.15,15.06,17.22,10.56,24.9-4.45,7.61-24.87,5.57-38.96-1.99-20.35-10.91-19.47-36.63-13.29-44.4Z"/>
    <path class="cls-1" d="M491.46,833.58c-5.52-9.25,15.02-35.44,39.83-44.72,2.68-1,21.42-8.01,27.02-1.1,5.55,6.85-3.56,25.23-15.6,35.75-17.39,15.19-46.16,18.6-51.25,10.07Z"/>
  </g>
  <g>
    <line class="cls-7" x1="332.35" y1="443.39" x2="209.6" y2="330.93"/>
    <path class="cls-8" d="M190.54,311.33c-10.03-3.62-24.23-1.77-32.49,6.5-10.83,10.84-3.56,24.77-14.3,33.79-10.79,9.07-24.51.34-29.77,7.8-6.36,9.01,4.6,34.58,21.98,40.29,4.73,1.55,8.16,1.05,45.67-11.7,20.21-6.87,22.15-7.72,24.51-10.4,14.24-16.08,8.24-57.67-15.6-66.28Z"/>
    <path class="cls-3" d="M212.25,329.19c8.64,6.25,15.1,19.03,12.92,30.51-2.86,15.05-18.46,16.88-19.88,30.84-1.42,14.03,13.51,20.45,10.32,29-3.86,10.33-31.17,15.67-45.67,4.52-3.94-3.03-5.47-6.15-16.04-44.33-5.7-20.57-6.08-22.65-5.21-26.11,5.28-20.82,43.02-39.28,63.56-24.42Z"/>
    <path class="cls-4" d="M186.17,317.83c10.03-3.62,24.23-1.77,32.49,6.5,10.83,10.84,3.56,24.77,14.3,33.79,10.79,9.07,24.51.34,29.77,7.8,6.36,9.01-4.6,34.58-21.98,40.29-4.73,1.55-8.16,1.05-45.67-11.7-20.21-6.87-22.15-7.72-24.51-10.4-14.24-16.08-8.24-57.67,15.6-66.28Z"/>
    <polyline class="cls-7" points="295.28 240.8 369.43 87.27 394.64 87.27"/>
    <path class="cls-4" d="M420.5,79.54c-10.03-3.62-24.23-1.77-32.49,6.5-10.83,10.84-3.56,24.77-14.3,33.79-10.79,9.07-24.51.34-29.77,7.8-6.36,9.01,4.6,34.58,21.98,40.29,4.73,1.55,8.16,1.05,45.67-11.7,20.21-6.87,22.15-7.72,24.51-10.4,14.24-16.08,8.24-57.67-15.6-66.28Z"/>
    <path class="cls-1" d="M291.34,243.46c-5.14-9.46,16.45-34.8,41.62-43.06,2.72-.89,21.73-7.14,27.04,0,5.27,7.07-4.58,25.07-17.05,35.09-17.99,14.47-46.88,16.71-51.62,7.97Z"/>
    <path class="cls-7" d="M406.21,1308.15c-2.99-322.52-93.54-982.21-152.99-1273.36l-19.1-17.36-7.8,15.6"/>
    <path class="cls-4" d="M220.35,19.19c-10.03-3.62-24.23-1.77-32.49,6.5-10.83,10.84-3.56,24.77-14.3,33.79-10.79,9.07-24.51.34-29.77,7.8-6.36,9.01,4.6,34.58,21.98,40.29,4.73,1.55,8.16,1.05,45.67-11.7,20.21-6.87,22.15-7.72,24.51-10.4,14.24-16.08,8.24-57.67-15.6-66.28Z"/>
    <path class="cls-3" d="M242.06,37.05c8.64,6.25,15.1,19.03,12.92,30.51-2.86,15.05-18.46,16.88-19.88,30.84-1.42,14.03,13.51,20.45,10.32,29-3.86,10.33-31.17,15.67-45.67,4.52-3.94-3.03-5.47-6.15-16.04-44.33-5.7-20.57-6.08-22.65-5.21-26.11,5.28-20.82,43.02-39.28,63.56-24.42Z"/>
    <path class="cls-8" d="M215.98,25.69c10.03-3.62,24.23-1.77,32.49,6.5,10.83,10.84,3.56,24.77,14.3,33.79,10.79,9.07,24.51.34,29.77,7.8,6.36,9.01-4.6,34.58-21.98,40.29-4.73,1.55-8.16,1.05-45.67-11.7-20.21-6.87-22.15-7.72-24.51-10.4-14.24-16.08-8.24-57.67,15.6-66.28Z"/>
    <path class="cls-1" d="M328.04,459.27c-9.63-4.81-6.45-37.94,9.45-59.14,1.72-2.29,13.72-18.3,22.17-15.49,8.37,2.78,10.6,23.17,6.13,38.53-6.46,22.16-28.86,40.54-37.74,36.1Z"/>
    <path class="cls-1" d="M262.35,415.25c6.7-8.43,38.46,1.55,55.9,21.5,1.88,2.15,15.06,17.22,10.56,24.9-4.45,7.61-24.87,5.57-38.96-1.99-20.35-10.91-33.69-36.63-27.5-44.4Z"/>
    <path class="cls-8" d="M442.21,97.39c8.64,6.25,15.1,19.03,12.92,30.51-2.86,15.05-18.46,16.88-19.88,30.84-1.42,14.03,13.51,20.45,10.32,29-3.86,10.33-31.17,15.67-45.67,4.52-3.94-3.03-5.47-6.15-16.04-44.33-5.7-20.57-6.08-22.65-5.21-26.11,5.28-20.82,43.02-39.28,63.56-24.42Z"/>
    <path class="cls-3" d="M416.13,86.03c10.03-3.62,24.23-1.77,32.49,6.5,10.83,10.84,3.56,24.77,14.3,33.79,10.79,9.07,24.51.34,29.77,7.8,6.36,9.01-4.6,34.58-21.98,40.29-4.73,1.55-8.16,1.05-45.67-11.7-20.21-6.87-22.15-7.72-24.51-10.4-14.24-16.08-8.24-57.67,15.6-66.28Z"/>
  </g>
  <g>
    <line class="cls-7" x1="308.95" y1="801.33" x2="152.37" y2="715.95"/>
    <path class="cls-4" d="M146.7,712.2c10.03-3.62,24.23-1.77,32.49,6.5,10.83,10.84,3.56,24.77,14.3,33.79,10.79,9.07,24.51.34,29.77,7.8,6.36,9.01-4.6,34.58-21.98,40.29-4.73,1.55-8.16,1.05-45.67-11.7-20.21-6.87-22.15-7.72-24.51-10.4-14.24-16.08-8.24-57.67,15.6-66.28Z"/>
    <path class="cls-3" d="M124.99,730.05c-8.64,6.25-15.1,19.03-12.92,30.51,2.86,15.05,18.46,16.88,19.88,30.84,1.42,14.03-13.51,20.45-10.32,29,3.86,10.33,31.17,15.67,45.67,4.52,3.94-3.03,5.47-6.15,16.04-44.33,5.7-20.57,6.08-22.65,5.21-26.11-5.28-20.82-43.02-39.28-63.56-24.42Z"/>
    <path class="cls-8" d="M151.06,718.69c-10.03-3.62-24.23-1.77-32.49,6.5-10.83,10.84-3.56,24.77-14.3,33.79-10.79,9.07-24.51.34-29.77,7.8-6.36,9.01,4.6,34.58,21.98,40.29,4.73,1.55,8.16,1.05,45.67-11.7,20.21-6.87,22.15-7.72,24.51-10.4,14.24-16.08,8.24-57.67-15.6-66.28Z"/>
    <path class="cls-7" d="M391.81,1298.46c-11.05-125.27-40.12-338.5-82.85-497.13-26.77-99.37-57.68-189.51-89.55-269.9h-27.67"/>
    <path class="cls-4" d="M161.6,515.12c10.03-3.62,24.23-1.77,32.49,6.5,10.83,10.84,3.56,24.77,14.3,33.79,10.79,9.07,24.51.34,29.77,7.8,6.36,9.01-4.6,34.58-21.98,40.29-4.73,1.55-8.16,1.05-45.67-11.7-20.21-6.87-22.15-7.72-24.51-10.4-14.24-16.08-8.24-57.67,15.6-66.28Z"/>
    <path class="cls-8" d="M139.9,532.98c-8.64,6.25-15.1,19.03-12.92,30.51,2.86,15.05,18.46,16.88,19.88,30.84,1.42,14.03-13.51,20.45-10.32,29,3.86,10.33,31.17,15.67,45.67,4.52,3.94-3.03,5.47-6.15,16.04-44.33,5.7-20.57,6.08-22.65,5.21-26.11-5.28-20.82-43.02-39.28-63.56-24.42Z"/>
    <path class="cls-4" d="M165.97,521.62c-10.03-3.62-24.23-1.77-32.49,6.5-10.83,10.84-3.56,24.77-14.3,33.79-10.79,9.07-24.51.34-29.77,7.8-6.36,9.01,4.6,34.58,21.98,40.29,4.73,1.55,8.16,1.05,45.67-11.7,20.21-6.87,22.15-7.72,24.51-10.4,14.24-16.08,8.24-57.67-15.6-66.28Z"/>
    <path class="cls-1" d="M358.6,747.07c-6.7-8.43-24.24,1.55-41.68,21.5-1.88,2.15-15.06,17.22-10.56,24.9,4.45,7.61,24.87,5.57,38.96-1.99,20.35-10.91,19.47-36.63,13.29-44.4Z"/>
    <path class="cls-1" d="M293.6,766.19c5.52-9.25-15.02-35.44-39.83-44.72-2.68-1-21.42-8.01-27.02-1.1-5.55,6.85,3.56,25.23,15.6,35.75,17.39,15.19,46.16,18.6,51.25,10.07Z"/>
  </g>
</svg>