<?xml version="1.0" encoding="UTF-8"?>
<svg id="Layer_2" data-name="Layer 2" xmlns="http://www.w3.org/2000/svg" viewBox="0 0 850.39 1417.32">
  <defs>
    <style>
      .cls-1 {
        fill: #ab76b3;
      }

      .cls-2 {
        fill: #1cad4b;
      }

      .cls-3 {
        fill: #4db748;
      }

      .cls-4 {
        fill: #9f56a2;
      }

      .cls-5 {
        fill: #109d49;
      }

      .cls-6 {
        fill: #82c341;
      }

      .cls-7 {
        fill: none;
        stroke: #76471c;
        stroke-miterlimit: 10;
        stroke-width: 8.5px;
      }
    </style>
  </defs>
  <path class="cls-6" d="M412.03,1330.28c15.7,5.64,41.03-14.37,49.97-37.39,12.32-31.71-4.94-72.98-24.25-75.72-15.73-2.23-30.4,21.44-32.91,25.67-18.71,31.54-12.68,80.31,7.18,87.45Z"/>
  <path class="cls-5" d="M379.64,1337.22c16.68.07,33.86-27.26,34.6-51.95,1.01-34-29.05-67.13-48.17-63.26-15.57,3.15-21.48,30.37-22.43,35.2-7.09,35.98,14.9,79.93,36,80.01Z"/>
  <path class="cls-2" d="M486.81,1234.84c-13.16-6.03-32.71,11.78-34.81,13.69-16.81,15.31-18.26,35.86-18.75,42.91-.75,10.59-1.83,26.07,7.54,33.14,11.41,8.6,32.95.71,44.68-10.8,23.44-22.99,18.55-71.05,1.35-78.94Z"/>
  <path class="cls-3" d="M422.61,1309.7c-11.39-5.69-23.12-20.54-18.29-34.66,2.26-6.61,8.33-13.64,15.33-14.53,11.85-1.5,19.66,15.47,22.93,22.57,2.82,6.13,9.46,20.55,3.53,27.23-5.23,5.89-17.34,2.47-23.5-.6Z"/>
  <path class="cls-2" d="M296.75,1226.21c-11.72,8.5-5.8,34.28-5.17,37.05,5.08,22.17,22.27,33.51,28.17,37.41,8.86,5.85,21.81,14.4,32.57,9.7,13.1-5.71,16.79-28.36,12.53-44.22-8.52-31.71-52.78-51.05-68.11-39.94Z"/>
  <path class="cls-6" d="M330.43,1318.89c-10.55,7.13-29.24,10.05-39.18-1.09-4.65-5.21-7.79-13.96-5.13-20.49,4.51-11.06,23.13-9.54,30.92-8.9,6.73.55,22.55,1.85,25.45,10.29,2.56,7.45-6.36,16.32-12.07,20.18Z"/>
  <path class="cls-2" d="M560.86,1270.47c11.72,8.5,5.8,34.28,5.17,37.05-5.08,22.17-22.27,33.51-28.17,37.41-8.86,5.85-21.81,14.4-32.57,9.7-13.1-5.71-16.79-28.36-12.53-44.22,8.52-31.71,52.78-51.05,68.11-39.94Z"/>
  <path class="cls-2" d="M560.67,1390.24c1.59,16.44-43.88,25.26-75.2,21.39-30.31-3.75-64.04-21.43-64.04-21.43h0s31.97-31.37,72.84-30.44c27.45.63,65,15.98,66.4,30.48Z"/>
  <path class="cls-2" d="M405.74,1379.02c2.02-16.56-23.11-36.82-47.54-40.44-33.65-4.98-70.07,21-68.46,40.44,1.31,15.83,27.65,24.89,32.33,26.4,34.9,11.25,81.12-5.45,83.68-26.4Z"/>
  <path class="cls-3" d="M333.24,1363.23c-14.89-12.92-19.54-34.82-10.54-45.77,7.61-9.26,22.52-7.72,28.23-7.14,3.49.36,32.97,3.4,46.64,23.18,10.89,15.76,4.11,31.11-4.59,37.75-11.33,8.65-28.81,4.71-33.66,3.62-7.02-1.58-17.11-3.85-26.08-11.64Z"/>
  <path class="cls-3" d="M418.18,1373.5c-6.78-12.79,9.88-33.33,11.66-35.54,14.32-17.67,34.75-20.29,41.76-21.19,10.53-1.35,25.92-3.33,33.52,5.62,9.25,10.9,2.6,32.85-8.21,45.22-21.61,24.73-69.87,22.61-78.74,5.88Z"/>
  <path class="cls-5" d="M395.16,1376.15c-11.86-4.63-30.74-3.38-37.98,9.68-3.39,6.1-4.53,15.33-.5,21.11,6.83,9.8,24.66,4.21,32.12,1.88,6.44-2.02,21.59-6.76,22.57-15.64.86-7.83-9.79-14.52-16.21-17.03Z"/>
  <path class="cls-6" d="M420.3,1397.86c-8.66-7.12-11.64-19.51-6.68-25.88,4.19-5.38,12.69-4.73,15.95-4.48,1.99.15,18.81,1.44,26.88,12.48,6.43,8.8,2.81,17.63-2.04,21.54-6.32,5.09-16.32,3.11-19.09,2.57-4.02-.79-9.79-1.93-15.01-6.23Z"/>
  <path class="cls-3" d="M214.19,1328.97c2.3-14.29,27.98-20.64,30.73-21.32,22.08-5.46,39.96,4.76,46.1,8.27,9.22,5.27,22.69,12.97,23.35,24.69.81,14.27-17.73,27.78-33.81,31.13-32.15,6.7-69.37-24.09-66.36-42.78Z"/>
  <path class="cls-5" d="M527.18,1363.16c10.55,7.13,29.24,10.05,39.18-1.09,4.65-5.21,7.79-13.96,5.13-20.49-4.51-11.06-23.13-9.54-30.92-8.9-6.73.55-22.55,1.85-25.45,10.29-2.56,7.45,6.36,16.32,12.07,20.18Z"/>
  <path class="cls-5" d="M304.5,1309.4c1.6-12.63-4.22-30.63-18.64-34.48-6.75-1.8-15.97-.66-20.6,4.66-7.84,9.01,1.92,24.94,6.01,31.61,3.53,5.76,11.82,19.29,20.67,18.07,7.8-1.07,11.7-13.04,12.57-19.87Z"/>
  <g>
    <path class="cls-7" d="M410.78,1355.91c12.57-76.1,29.56-157.01,52.37-241.66,26.77-99.37,57.68-189.51,89.55-269.9h27.67"/>
    <path class="cls-4" d="M587.56,838.74c-5.36-1.94-12.94-.94-17.36,3.47-5.79,5.79-1.9,13.23-7.64,18.05-5.77,4.85-13.09.18-15.91,4.17-3.4,4.81,2.46,18.48,11.74,21.53,2.52.83,4.36.56,24.4-6.25,10.8-3.67,11.83-4.13,13.1-5.56,7.61-8.59,4.4-30.81-8.33-35.41Z"/>
    <path class="cls-1" d="M599.16,848.28c4.62,3.34,8.07,10.17,6.9,16.3-1.53,8.04-9.87,9.02-10.62,16.48-.76,7.49,7.22,10.93,5.51,15.49-2.06,5.52-16.65,8.37-24.4,2.41-2.11-1.62-2.92-3.29-8.57-23.68-3.04-10.99-3.25-12.1-2.78-13.95,2.82-11.12,22.99-20.98,33.96-13.05Z"/>
    <path class="cls-4" d="M585.23,842.22c5.36-1.94,12.94-.94,17.36,3.47,5.79,5.79,1.9,13.23,7.64,18.05,5.77,4.85,13.09.18,15.91,4.17,3.4,4.81-2.46,18.48-11.74,21.53-2.52.83-4.36.56-24.4-6.25-10.8-3.67-11.83-4.13-13.1-5.56-7.61-8.59-4.4-30.81,8.33-35.41Z"/>
  </g>
  <path class="cls-2" d="M393.04,1337.36c.69-11.19,8.98-20.87,17.04-20.59,6.82.24,11.28,7.51,12.98,10.29,1.04,1.7,9.86,16.08,5.65,29.09-3.36,10.37-12.64,12.61-18.65,10.97-7.83-2.13-12.09-11.39-13.27-13.96-1.71-3.72-4.17-9.07-3.76-15.81Z"/>
</svg>