<?xml version="1.0" encoding="UTF-8"?>
<svg id="Layer_2" data-name="Layer 2" xmlns="http://www.w3.org/2000/svg" viewBox="0 0 850.39 1417.32">
  <defs>
    <style>
      .cls-1 {
        fill: #1cad4b;
      }

      .cls-2 {
        fill: #4db748;
      }

      .cls-3 {
        fill: #109d49;
      }

      .cls-4 {
        fill: #75c043;
      }
    </style>
  </defs>
  <path class="cls-3" d="M478.57,1402.68c.7,7.23-19.28,11.1-33.05,9.4-13.32-1.65-28.14-9.42-28.15-9.42h0s14.05-13.79,32.01-13.38c12.06.28,28.57,7.02,29.18,13.4Z"/>
  <path class="cls-2" d="M422.8,1399.28c.89-7.28-10.16-16.18-20.89-17.77-14.79-2.19-30.8,9.23-30.09,17.77.58,6.96,12.15,10.94,14.21,11.6,15.34,4.94,35.65-2.39,36.77-11.6Z"/>
  <path class="cls-1" d="M414.77,1384.78c.3-4.92,3.95-9.17,7.49-9.05,3,.1,4.96,3.3,5.71,4.52.46.75,4.34,7.07,2.48,12.79-1.48,4.56-5.55,5.54-8.19,4.82-3.44-.94-5.31-5.01-5.83-6.14-.75-1.63-1.83-3.98-1.65-6.95Z"/>
  <path class="cls-2" d="M428.26,1396.86c-2.98-5.62,4.34-14.65,5.13-15.62,6.29-7.76,15.27-8.92,18.35-9.31,4.63-.59,11.39-1.46,14.73,2.47,4.06,4.79,1.14,14.44-3.61,19.88-9.5,10.87-30.71,9.94-34.6,2.58Z"/>
  <path class="cls-4" d="M419.51,1398.52c-4.75-2.96-13-3.95-17.19,1.1-1.96,2.36-3.2,6.25-1.92,9.08,2.16,4.79,10.31,3.82,13.72,3.41,2.95-.35,9.87-1.17,11.01-4.93,1.01-3.31-3.05-7.07-5.62-8.67Z"/>
</svg>